<?xml version="1.0" encoding="iso-8859-1"?>
<!-- Generator: Adobe Illustrator 19.0.0, SVG Export Plug-In . SVG Version: 6.00 Build 0)  -->
<svg version="1.1" id="Capa_1" xmlns="http://www.w3.org/2000/svg" xmlns:xlink="http://www.w3.org/1999/xlink" x="0px" y="0px"
	 viewBox="0 0 512 512" style="enable-background:new 0 0 512 512;" xml:space="preserve">
<g>
	<g>
		<path d="M376.3,2.2C374.9,0.8,372.97,0,371,0H181c-1.98,0-3.91,0.8-5.3,2.2c-1.4,1.39-2.2,3.319-2.2,5.3v33.84
			c0,4.14,3.36,7.51,7.5,7.51c4.13,0,7.5-3.37,7.5-7.51V15h175v145.01H271c-0.95,0-1.91,0.19-2.78,0.54l-39.72,15.87v-8.91
			c0-1.97-0.8-3.9-2.2-5.3c-1.39-1.4-3.33-2.2-5.3-2.2h-32.5V71.34c0-4.13-3.37-7.49-7.5-7.49c-4.14,0-7.5,3.36-7.5,7.49v96.17
			c0,1.98,0.8,3.91,2.2,5.31c1.389,1.39,3.32,2.19,5.299,2.19h32.5v12.49c0,2.49,1.23,4.81,3.29,6.21c1.25,0.84,2.7,1.29,4.21,1.29
			c0.96,0,1.9-0.181,2.78-0.54l48.66-19.45H371c1.97,0,3.899-0.8,5.3-2.19c1.4-1.399,2.2-3.329,2.2-5.31V7.5
			C378.5,5.519,377.7,3.59,376.3,2.2z"/>
	</g>
</g>
<g>
	<g>
		<path d="M460.999,427.002h-22.496l0.008-16.605c18.366-16.047,29.988-39.624,29.988-65.866v-28.774
			c5.86-29.478,3.172-51.338-8.002-64.968c-7.043-8.592-15.773-11.867-21.998-13.092v-33.194c0-4.143-3.357-7.5-7.5-7.5
			c-2.846,0-5.762-0.016-8.73-0.031c-3.103-0.017-6.264-0.033-9.461-0.033c-36.182,0-76.803,2.289-100.933,29.622
			c-17.357,19.661-23.367,48.697-18.377,88.765v29.206c0,26.249,11.628,49.832,30.002,65.879v16.593H301
			c-20.678,0-37.5,16.822-37.5,37.5V504.5c0,4.143,3.357,7.5,7.5,7.5h30h50h139.999c4.143,0,7.5-3.357,7.5-7.5v-39.959
			c0-0.014,0.001-0.025,0.001-0.039C498.5,443.824,481.677,427.002,460.999,427.002z M323.122,236.487
			c19.997-22.653,56.78-24.55,89.688-24.55c3.17,0,6.304,0.017,9.381,0.033c0.438,0.002,0.874,0.004,1.31,0.007v32.525
			c0,2.07,0.819,4.051,2.328,5.469c1.51,1.418,3.503,2.152,5.567,2.02c0.683-0.04,10.571-0.147,17.503,8.307
			c5.119,6.245,7.673,15.827,7.616,28.25l-3.26-6.518c-1.651-3.305-5.466-4.916-8.985-3.792
			c-0.446,0.142-44.884,14.206-70.518,14.206c-24.588,0-46.836-13.331-47.049-13.46c-3.297-2.018-7.589-1.194-9.91,1.899
			l-9.898,13.198C306.29,268.722,311.723,249.398,323.122,236.487z M308.5,344.53v-27.589l16.42-21.893
			c9.248,4.599,28.004,12.396,48.832,12.396c22.214,0,55.286-9.022,68.919-13.042l10.829,21.659v28.469
			c0,39.961-32.523,72.472-72.5,72.472S308.5,384.491,308.5,344.53z M423.506,420.962l-0.005,9.524l-23.031,15.358l-11.971-5.98
			v-8.187C401.116,430.601,412.976,426.837,423.506,420.962z M373.5,431.678v7.746l-16.221,6.488l-18.777-15.016v-9.929
			C349.029,426.84,360.886,430.602,373.5,431.678z M343.5,497h-34.999v-15H343.5V497z M483.499,464.502V497H358.5v-22.5
			c0-4.143-3.357-7.5-7.5-7.5h-49.998c-4.143,0-7.5,3.357-7.5,7.5V497h-15v-32.498c0-12.406,10.094-22.5,22.5-22.5h27.37
			l22.952,18.353c0.066,0.053,0.141,0.088,0.208,0.139c0.212,0.157,0.429,0.303,0.654,0.437c0.136,0.081,0.271,0.16,0.409,0.231
			c0.215,0.109,0.436,0.203,0.658,0.291c0.149,0.059,0.296,0.123,0.447,0.172c0.247,0.08,0.5,0.137,0.755,0.191
			c0.127,0.027,0.251,0.065,0.378,0.086c0.387,0.062,0.779,0.098,1.176,0.098c0.262,0,0.523-0.018,0.787-0.045
			c0.046-0.006,0.092-0.015,0.139-0.021c0.206-0.025,0.411-0.059,0.617-0.102c0.084-0.018,0.167-0.04,0.251-0.061
			c0.161-0.04,0.322-0.084,0.482-0.136c0.104-0.033,0.208-0.069,0.312-0.107c0.064-0.023,0.131-0.041,0.195-0.067l21.866-8.746
			l17.001,8.492c0.115,0.058,0.234,0.099,0.35,0.15c0.136,0.059,0.269,0.123,0.406,0.174c0.188,0.069,0.376,0.122,0.565,0.175
			c0.091,0.025,0.18,0.059,0.271,0.08c0.266,0.064,0.531,0.111,0.799,0.146c0.023,0.002,0.044,0.008,0.066,0.012
			c0.296,0.035,0.593,0.055,0.888,0.055c0.353,0,0.702-0.026,1.049-0.075c0.151-0.022,0.301-0.064,0.452-0.095
			c0.191-0.039,0.384-0.072,0.571-0.125c0.152-0.045,0.302-0.107,0.452-0.16c0.187-0.067,0.373-0.131,0.554-0.211
			c0.132-0.061,0.26-0.134,0.39-0.201c0.195-0.102,0.389-0.205,0.575-0.324c0.04-0.026,0.084-0.043,0.124-0.07l28.099-18.736H461
			c12.398,0,22.486,10.08,22.5,22.475C483.5,464.485,483.499,464.494,483.499,464.502z"/>
	</g>
</g>
<g>
	<g>
		<path d="M210.999,427.002h-32.496l0.005-9.051c24.049-15.605,39.991-42.686,39.991-73.421v-16.528l9.977,3.563
			c0.82,0.293,1.673,0.437,2.522,0.437c1.527,0,3.04-0.467,4.321-1.369c1.994-1.405,3.18-3.691,3.18-6.131
			c0-45.011-8.666-78.434-25.758-99.337c-14.041-17.173-33.342-25.88-57.368-25.88c-28.005,0-54.249,12.031-63.574,16.814
			l-17.576-8.368c-2.232-1.063-4.844-0.958-6.981,0.28c-3.008,1.741-29.189,18.954-23.743,86.77v49.749
			c0,30.739,15.946,57.822,40,73.427v9.045H51c-20.678,0-37.5,16.822-37.5,37.5V504.5c0,4.143,3.358,7.5,7.5,7.5h219.998
			c4.142,0,7.5-3.357,7.5-7.5v-39.959c0-0.014,0.002-0.025,0.002-0.039C248.499,443.824,231.677,427.002,210.999,427.002z
			 M72.221,223.391l16.555,7.882c2.221,1.059,4.825,0.955,6.959-0.268c0.292-0.168,29.521-16.72,59.639-16.72
			c42.943,0,65.776,33.469,67.954,99.513L93.522,267.439c-0.818-0.292-1.671-0.436-2.522-0.436c-1.153,0-2.302,0.266-3.354,0.792
			l-29.799,14.899C56.754,245.12,67.146,228.983,72.221,223.391z M58.5,344.53v-45.394l32.992-16.495L203.5,322.644v21.886
			c0,39.961-32.523,72.472-72.5,72.472S58.5,384.491,58.5,344.53z M163.504,425.74l-0.005,8.758v0.002v0.001
			c0,17.921-14.58,32.5-32.5,32.5c-17.92,0-32.5-14.579-32.5-32.5v-8.759c10.054,4.034,21.022,6.26,32.5,6.26
			C142.48,432.002,153.449,429.775,163.504,425.74z M233.498,464.502V497h-0.001H28.5v-32.498c0-12.406,10.093-22.5,22.5-22.5
			h33.098c3.608,22.639,23.263,39.999,46.902,39.999c23.639,0,43.294-17.36,46.902-39.999H211c12.398,0,22.485,10.08,22.499,22.475
			C233.499,464.485,233.498,464.494,233.498,464.502z"/>
	</g>
</g>
<g>
	<g>
		<path d="M298.979,39.51c-6.14-6.13-14.3-9.51-22.979-9.52c-8.69,0.01-16.851,3.39-22.98,9.52c-6.14,6.14-9.52,14.3-9.52,22.98
			c0,4.14,3.36,7.5,7.5,7.5c4.13,0,7.5-3.36,7.5-7.5v-0.011c0.01-4.67,1.83-9.05,5.13-12.35c3.3-3.3,7.689-5.13,12.37-5.14
			c4.67,0.01,9.06,1.84,12.359,5.14c3.31,3.3,5.131,7.689,5.141,12.36c-0.01,4.68-1.83,9.069-5.141,12.369
			c-3.277,3.277-7.63,5.102-12.264,5.136c-0.032-0.001-0.064-0.005-0.096-0.005c-4.141,0-7.5,3.369-7.5,7.51v20
			c0,4.13,3.359,7.5,7.5,7.5c4.13,0,7.5-3.37,7.5-7.5V94.117h0.001c5.812-1.367,11.149-4.318,15.479-8.647
			c6.13-6.13,9.511-14.29,9.521-22.98C308.49,53.809,305.109,45.649,298.979,39.51z"/>
	</g>
</g>
<g>
	<g>
		<path d="M276,120c-4.141,0-7.5,3.359-7.5,7.5v9.99c0,4.14,3.359,7.5,7.5,7.5c4.13,0,7.5-3.36,7.5-7.5v-9.99
			C283.5,123.359,280.129,120,276,120z"/>
	</g>
</g>
<g>
</g>
<g>
</g>
<g>
</g>
<g>
</g>
<g>
</g>
<g>
</g>
<g>
</g>
<g>
</g>
<g>
</g>
<g>
</g>
<g>
</g>
<g>
</g>
<g>
</g>
<g>
</g>
<g>
</g>
</svg>
